# xmcd
#
# Track frame offsets: 
#        150
#        19398
#        39443
#        61833
#        75570
#        90426
#        105211
#        115119
#        130509
#        145459
#        160221
#        176925
#        189956
#        208956
#        229753
#        257272
#        274382
#        294101
#        316395
#        333803
#
# Disc length: 4792 seconds
#
# Revision: 0
# Processed by: cddbd v1.5.2PL0 Copyright (c) Steve Scherf et al.
# Submitted via: ExactAudioCopy v0.95a5
#
DISCID=0b12b614
DTITLE=Various Artist - Akella Presents - Blues-Rock - vol.23  CD1
DYEAR=2010
DGENRE=Blues-Rock
TTITLE0=Dirty Double Dealer - BLINDSIDE BLUES BAND
TTITLE1=Justified - RHINO BUCKET
TTITLE2=Gypst Blood - MARK REECE
TTITLE3=The Blues Will Survive - ROB ORLEMANS
TTITLE4=American Man - SWAMPdaWAMP
TTITLE5=In It For The Money - STAMPEDE QUEEN
TTITLE6=Black Betty - OLI BROWN
TTITLE7=Rock'n'Roll Outlaw - GENOCIDE
TTITLE8=For My Brothers - ERRORHEADS
TTITLE9=Take Me Down Again - DAVE EVANS
TTITLE10=Too Much, Too Young, Too Fast - AIRBOURNE
TTITLE11=Movin' On - BIG BAD BUBBA
TTITLE12=Don't wanna let you go - SIDEBURN
TTITLE13=My Surprise - SMALL JACKETS
TTITLE14=Feel Good About It - LEO LIONS KICK
TTITLE15=Peg Legged Pete - BONAFIDE
TTITLE16=Jerusalem Blues - BACK TO BLUE
TTITLE17=If You Can't Feel Anything Else - JEFF HEALEY
TTITLE18=Pusherman Of Love - CUB KODA
TTITLE19=Selfish - DAMAGE CONTROL
EXTD=
EXTT0=
EXTT1=
EXTT2=
EXTT3=
EXTT4=
EXTT5=
EXTT6=
EXTT7=
EXTT8=
EXTT9=
EXTT10=
EXTT11=
EXTT12=
EXTT13=
EXTT14=
EXTT15=
EXTT16=
EXTT17=
EXTT18=
EXTT19=
PLAYORDER=
